<svg version="1.0" xmlns="http://www.w3.org/2000/svg" width="266.667" height="266.667" viewBox="0 0 200 200"><path d="M99.6 12.2c2.5 7-1.5 18.6-9.9 28.3-2.8 3.3-5.4 6.2-5.8 6.5-1.3 1-18.2 16.6-21.8 20-26.3 25.8-37.4 50.4-33.6 74.9 2.8 18.7 17.8 35.9 37.6 43.1 7.3 2.7 7.9 2.5 3.3-.9-5.4-3.9-9.3-8.6-12.2-15-4.8-10.4-1.5-23.6 8.6-34.3 2.5-2.7 5.4-5.4 6.4-5.9 1.5-.8 1.7-.7.9 1.3-1.1 3-.4 7.7 1.5 10.6 1.7 2.6 7 5.2 10.5 5.2 3.8 0 8.7-3.1 10.3-6.4 2.7-5.7 1.1-10.9-5.5-18.4-8.7-10-10.4-19.1-5.1-28.4 3.4-6.1 5.2-7.2 5.2-3 0 3 3.8 9 8.1 12.8 1.3 1.2 7.7 5.4 14.3 9.5 26.5 16.5 34.7 27.1 34.3 44-.2 5.6-.8 8.6-2.6 12.4-3 5.9-10.2 13.1-16.2 16.2-6.3 3.3-3 2.8 5.9-.8 17.2-6.8 31-18.6 37.6-32 4.3-8.9 5.6-14.9 5.1-24.9-.9-18.1-12.4-35.5-31.3-47.2l-6-3.7-.6 3.8c-.7 4.7-2.8 6.6-8.9 8.3-4.4 1.1-5.2 1.1-8.5-.7-4.7-2.6-8.2-8.6-8.2-14.4 0-2.4 1.1-8.5 2.5-13.5 3.9-14.2 3.6-20.9-1-31.1-2.7-5.8-10.5-15.9-13.6-17.6-1.9-1-2-.9-1.3 1.3z"/></svg>